<?xml version="1.0" encoding="UTF-8" standalone="no"?>
<svg width="296px" height="25px" viewBox="0 0 296 25" version="1.1" xmlns="http://www.w3.org/2000/svg" xmlns:xlink="http://www.w3.org/1999/xlink" xmlns:sketch="http://www.bohemiancoding.com/sketch/ns">
    <!-- Generator: Sketch 3.2.2 (9983) - http://www.bohemiancoding.com/sketch -->
    <title>logo_smartdots</title>
    <desc>Created with Sketch.</desc>
    <defs></defs>
    <g id="Page-1" stroke="none" stroke-width="1" fill="none" fill-rule="evenodd" sketch:type="MSPage">
        <g id="logo_smartdots" sketch:type="MSLayerGroup" fill="#FFFFFF">
            <path d="M20.473,21.427 C24.319,21.427 26.119,20.075 26.119,17.631 C26.119,15.187 24.294,13.964 19.966,13.595 L8.515,12.646 C3.38,12.236 0.677,10.378 0.677,6.543 C0.677,2.366 3.954,0.611 8.385,0.611 L27.161,0.611 L27.161,2.981 L8.18,2.981 C5.101,2.981 3.342,4.064 3.342,6.477 C3.342,8.781 4.938,9.868 9.193,10.24 L20.34,11.192 C25.809,11.661 28.784,13.387 28.784,17.522 C28.784,21.393 26.19,23.793 20.34,23.793 L0.211,23.793 L0.211,21.427 L20.473,21.427 L20.473,21.427 Z" id="Shape" sketch:type="MSShapeGroup"></path>
            <path d="M36.249,3.465 L36.249,23.796 L33.674,23.796 L33.674,0.611 L36.18,0.611 C37.156,0.611 37.595,1.112 38.035,1.624 L50.365,15.973 L62.663,1.624 C63.102,1.112 63.543,0.611 64.514,0.611 L67.015,0.611 L67.015,23.796 L64.44,23.796 L64.44,3.465 L51.375,18.612 L49.314,18.612 L36.249,3.465 L36.249,3.465 Z" id="Shape" sketch:type="MSShapeGroup"></path>
            <path d="M91.201,5.695 C90.329,3.865 89.206,2.679 87.177,2.679 C85.121,2.679 84.008,3.865 83.131,5.695 L78.806,14.575 L95.527,14.575 L91.201,5.695 L91.201,5.695 Z M102.881,23.794 L100.045,23.794 L96.711,16.917 L77.617,16.917 L74.276,23.794 L71.478,23.794 L80.559,5.12 C82.075,1.974 83.933,0.301 87.177,0.301 C90.427,0.301 92.211,1.975 93.775,5.12 L102.881,23.794 L102.881,23.794 Z" id="Shape" sketch:type="MSShapeGroup"></path>
            <path d="M127.306,12.718 C131.356,12.718 132.708,10.139 132.708,7.828 C132.708,5.557 131.428,2.949 127.306,2.949 L109.945,2.949 L109.945,12.718 L127.306,12.718 L127.306,12.718 Z M107.313,0.611 L127.1,0.611 C132.707,0.611 135.38,3.595 135.38,7.559 C135.38,10.913 133.423,13.19 130.245,13.897 C133.277,14.711 134.769,16.816 134.769,19.498 L134.769,23.795 L132.07,23.795 L132.07,19.458 C132.07,16.996 130.421,15.051 126.896,15.051 L109.943,15.051 L109.943,23.796 L107.312,23.796 L107.312,0.611 L107.313,0.611 Z" id="Shape" sketch:type="MSShapeGroup"></path>
            <path d="M150.343,23.794 L150.343,2.982 L137.974,2.982 L137.974,0.61 L165.3,0.61 L165.3,2.982 L152.937,2.982 L152.937,23.794 L150.343,23.794 Z" id="Shape" sketch:type="MSShapeGroup"></path>
            <path d="M189.257,3.193 L173.139,3.193 L173.139,21.225 L189.257,21.225 C195.532,21.225 197.472,18.206 197.472,12.203 C197.472,6.271 195.578,3.193 189.257,3.193 L189.257,3.193 Z M170.545,0.611 L189.257,0.611 C197.071,0.611 200.135,4.508 200.135,12.203 C200.135,20.042 196.958,23.796 189.257,23.796 L170.545,23.796 L170.545,0.611 L170.545,0.611 Z" id="Shape" sketch:type="MSShapeGroup"></path>
            <path d="M233.442,12.204 C233.442,4.208 228.702,2.809 220.265,2.809 C211.816,2.809 207.054,4.208 207.054,12.204 C207.054,20.207 211.816,21.63 220.265,21.63 C228.702,21.63 233.442,20.208 233.442,12.204 M236.114,12.204 C236.114,21.7 230.394,24.112 220.265,24.112 C210.121,24.112 204.39,21.7 204.39,12.204 C204.39,2.713 210.121,0.3 220.265,0.3 C230.395,0.3 236.114,2.713 236.114,12.204" id="Shape" sketch:type="MSShapeGroup"></path>
            <path d="M250.048,23.794 L250.048,2.982 L237.688,2.982 L237.688,0.61 L265.022,0.61 L265.022,2.982 L252.651,2.982 L252.651,23.794 L250.048,23.794 Z" id="Shape" sketch:type="MSShapeGroup"></path>
            <path d="M287.607,21.427 C291.461,21.427 293.259,20.075 293.259,17.631 C293.259,15.187 291.428,13.964 287.108,13.595 L275.658,12.646 C270.516,12.236 267.819,10.378 267.819,6.543 C267.819,2.366 271.096,0.611 275.524,0.611 L294.297,0.611 L294.297,2.981 L275.322,2.981 C272.235,2.981 270.484,4.064 270.484,6.477 C270.484,8.781 272.077,9.868 276.326,10.24 L287.481,11.192 C292.957,11.661 295.924,13.387 295.924,17.522 C295.924,21.393 293.316,23.793 287.481,23.793 L267.33,23.793 L267.33,21.427 L287.607,21.427 L287.607,21.427 Z" id="Shape" sketch:type="MSShapeGroup"></path>
        </g>
    </g>
</svg>